<svg width="64" height="64" viewBox="0 0 64 64" fill="none" xmlns="http://www.w3.org/2000/svg">
<g clip-path="url(#clip0_4_4)">
<path d="M37.896 9.995C37.896 9.995 44.458 11.323 48.468 15.936C52.48 20.549 52.345 20.975 53.948 25.441C54.483 26.898 55.552 26.766 55.954 26.698C56.354 26.633 57.558 26.03 56.856 23.959C56.155 21.885 53.055 10.722 39.196 7.111C37.77 6.841 37.243 7.312 37.018 7.964C36.793 8.616 36.959 9.756 37.896 9.995Z" fill="#FF0033"/>
<path d="M26.114 9.995C26.114 9.995 19.553 11.323 15.542 15.936C11.531 20.549 11.666 20.975 10.062 25.441C9.52596 26.898 8.45796 26.766 8.05596 26.698C7.65496 26.633 6.44996 26.03 7.15196 23.959C7.85396 21.885 10.953 10.722 24.813 7.111C26.239 6.841 26.765 7.312 26.991 7.964C27.217 8.616 27.052 9.756 26.114 9.995Z" fill="#FF0033"/>
<path d="M26.144 53.907C26.144 53.907 19.577 52.606 15.546 48.01C11.516 43.413 11.65 42.987 10.026 38.528C9.48398 37.074 8.41698 37.213 8.01598 37.281C7.61498 37.347 6.41198 37.955 7.12298 40.023C7.83398 42.094 10.98 53.244 24.856 56.797C26.282 57.058 26.805 56.587 27.029 55.936C27.251 55.28 27.082 54.139 26.144 53.907Z" fill="#FF0033"/>
<path d="M37.924 53.986C37.924 53.986 44.481 52.629 48.473 48.001C52.465 43.369 52.327 42.942 53.912 38.472C54.441 37.011 55.51 37.14 55.914 37.205C56.316 37.271 57.521 37.866 56.828 39.944C56.133 42.018 53.082 53.193 39.238 56.862C37.814 57.135 37.285 56.671 37.056 56.019C36.827 55.367 36.988 54.227 37.924 53.986Z" fill="#FF0033"/>
<path d="M46.177 34.037H35.449C35.004 34.05 33.242 34.237 33.242 36.45V46.954C33.242 46.954 33.289 48.428 34.721 48.133C41.157 47.051 46.297 42.223 47.862 35.967C48.244 33.965 46.177 34.037 46.177 34.037Z" fill="#FF0033"/>
<path d="M62.373 29.926H51.168C48.496 29.926 48.344 31.364 48.365 31.831C48.365 31.884 48.375 31.935 48.375 31.987C48.375 31.987 48.209 34.037 50.266 34.037H62.373C63.26 34.037 63.977 33.316 63.977 32.433V31.531C63.976 30.643 63.259 29.926 62.373 29.926Z" fill="#FF0033"/>
<path d="M31.683 48.358C31.515 48.348 31.346 48.339 31.178 48.33L31.186 48.351C31.186 48.351 29.13 48.057 29.13 50.94V62.372C29.13 63.259 29.849 63.976 30.734 63.976H31.637C32.521 63.976 33.241 63.258 33.241 62.372V51.491C33.242 49.094 32.293 48.495 31.683 48.358Z" fill="#FF0033"/>
<path d="M26.724 34.037H17.463C16.877 34.078 15.843 34.391 16.119 35.911C17.507 41.535 21.775 46.014 27.295 47.662C27.936 47.8 29.13 47.838 29.13 46.202V36.149C29.13 33.943 26.724 34.037 26.724 34.037Z" fill="#FF0033"/>
<path d="M15.605 31.919C15.589 31.43 15.367 29.926 13.161 29.926H1.604C0.717 29.926 0 30.644 0 31.53V32.432C0 33.316 0.718 34.036 1.604 34.036H13.412C15.551 34.036 15.624 32.485 15.607 32.084C15.607 32.053 15.601 32.022 15.601 31.986C15.6 31.966 15.605 31.943 15.605 31.919Z" fill="#FF0033"/>
<path d="M47.779 27.714C46.207 21.888 41.515 17.357 35.599 16.025C33.183 15.452 33.242 17.849 33.242 17.849V27.776C33.242 27.776 33.193 29.926 35.424 29.926H45.953C45.953 29.926 48.342 29.928 47.779 27.714Z" fill="#FF0033"/>
<path d="M26.808 16.46C21.763 18.14 17.813 22.198 16.293 27.315C16.292 27.321 15.646 29.925 17.899 29.925H26.511C27.253 29.9 29.131 29.596 29.131 27.073V18.148C29.13 15.965 27.068 16.394 26.808 16.46Z" fill="#FF0033"/>
<path d="M31.637 0H30.734C29.849 0 29.13 0.718 29.13 1.604V13.286C29.13 13.286 29.077 15.743 31.309 15.617C31.376 15.614 31.411 15.624 31.471 15.624C31.484 15.624 31.492 15.624 31.506 15.624C31.562 15.624 31.616 15.617 31.672 15.617C32.232 15.57 33.242 15.26 33.242 13.588V1.604C33.242 0.717 32.522 0 31.637 0Z" fill="#FF0033"/>
</g>
<defs>
<clipPath id="clip0_4_4">
<rect width="63.977" height="63.976" fill="white"/>
</clipPath>
</defs>
</svg>
